<?xml version="1.0" encoding="utf-8"?>
<!-- Generator: Adobe Illustrator 16.0.0, SVG Export Plug-In . SVG Version: 6.00 Build 0)  -->
<!DOCTYPE svg PUBLIC "-//W3C//DTD SVG 1.1//EN" "http://www.w3.org/Graphics/SVG/1.1/DTD/svg11.dtd">
<svg version="1.1" id="horseSVG" xmlns="http://www.w3.org/2000/svg" xmlns:xlink="http://www.w3.org/1999/xlink" x="0px" y="0px"
	 viewBox="0 0 81.516 106.699" enable-background="new 0 0 81.516 106.699"
	 xml:space="preserve">

<path id="XMLID_54_" class="horse-smoke1" fill="#FFFFFF" d="M11.549,74.531c0,0,1.072-0.633,1.526-0.43c0.452,0.202,0.94,0.631,0.059,1.441
	s-1.274,1.025-1.013,1.418c0.263,0.393,0.644,0.311,0.644,0.311s-0.131,0.464,0.227,0.631s0.632-0.143,0.798,0.227
	c0,0,0.501-0.882-0.548-1.061c0,0,0.179-0.596,0.953-1.061s2.002-1.691,0.727-2.812S11.549,74.531,11.549,74.531z"/>

<path id="XMLID_53_" class="horse-smoke2" fill="#FFFFFF" d="M14.907,60.949c0,0-4.073-2.399-5.793-1.63c-1.721,0.77-3.576,2.399-0.228,5.478
	c3.35,3.078,4.844,3.893,3.849,5.387c-0.997,1.492-2.445,1.176-2.445,1.176s0.498,1.766-0.859,2.399s-2.399-0.544-3.032,0.86
	c0,0-1.9-3.351,2.082-4.029c0,0-0.68-2.264-3.621-4.028s-7.604-6.427-2.761-10.681C6.941,51.625,14.907,60.949,14.907,60.949z"/>

<g>
	<path fill="#FFFFFF" d="M12.257,80.997l-3.088-0.285c0,0-3.085,2.372-0.2,5.385l2.871,0.3
		C11.84,86.396,14.274,83.312,12.257,80.997z"/>
	<path fill="#FFFFFF" d="M63.156,80.533c-0.304-0.863-1.39-4.257-1.624-9.363c-0.13-2.81,1.056-7.373,3.508-13.578
		c0-0.002,0-0.004,0-0.007c0.013-0.03,0.025-0.062,0.037-0.091c0.006-0.014,0.009-0.025,0.014-0.037h0.001
		c0.601-1.514,1.277-3.125,2.025-4.831c0.306-0.209,0.573-0.454,0.796-0.738c0.597-0.765,0.779-1.655,0.809-2.376h3.629
		c0,0-0.284-0.325-1.749-2.358c-0.544-0.756-1.342-1.09-2.129-1.211c-0.018,0.01-0.029,0.022-0.047,0.032
		c-0.211,0.116-0.867,0.51-1.723,1.223l-0.007-0.003c-0.108,0.09-0.222,0.186-0.337,0.288l0.006,0.002
		c-0.295,0.26-0.61,0.567-0.934,0.9c-0.006,0.001-0.011,0.001-0.017,0.001c-0.091,0.094-0.186,0.203-0.278,0.302
		c-0.016,0.018-0.032,0.035-0.048,0.053c-0.211,0.229-0.424,0.476-0.64,0.738c-0.009,0.012-0.019,0.021-0.028,0.033h0.001
		c-0.08,0.099-0.161,0.19-0.242,0.295c0.142,0.574,0.816,1.011,1.63,1.011c0.917,0,1.66-0.553,1.66-1.236
		c0-0.024-0.007-0.046-0.009-0.07h0.85c-0.029,0.657-0.189,1.458-0.717,2.131c-0.754,0.963-2.071,1.452-3.915,1.453
		c-0.464,0-0.972-0.042-1.503-0.104c-0.033,0.065-0.066,0.129-0.101,0.191c0,0.001,0,0.002,0,0.002
		c-0.032,0.061-0.065,0.12-0.096,0.184c0.003,0,0.006,0,0.01,0c-1.108,2.307-1.997,5.225-2.268,8.899
		c-0.507,6.863,0.563,16.15,1.263,21.176L63.156,80.533z"/>
	<path fill="#FFFFFF" d="M60.653,86.877c0.01-0.005,0.021-0.011,0.029-0.015c-0.354-2.179-2.437-15.522-1.764-24.654
		c0.019-0.25,0.054-0.501,0.081-0.75c0.211-1.903,0.513-3.771,1.124-5.59c0.492-1.467,1.083-2.919,1.866-4.255
		c0.631-1.075,1.356-2.116,2.174-3.058c0.627-0.721,1.313-1.444,2.07-2.03c0.257-0.199,0.53-0.375,0.786-0.574
		c0.244-0.189,0.479-0.389,0.715-0.589c0.283-0.242,0.742-0.515,0.947-0.823c0.646-0.969,0.459-2.264-0.134-3.21
		c-0.301-0.479-0.759-0.914-1.238-1.21c-1.969-1.219-4.467-1.585-6.701-2.007c-2.542-0.481-5.106-0.796-7.689-0.952
		c-0.771-0.046-1.55-0.064-2.322-0.047c-1.368,0.03-2.735,0.205-4.063,0.54c-0.762,0.192-1.506,0.448-2.232,0.748
		c-0.916,0.376-1.536,0.963-1.711,1.968c-0.201,1.15,0.06,2.494,0.835,3.388c0.039,0.047,0.079,0.093,0.123,0.138
		c0.158,0.164,0.33,0.32,0.534,0.465c0.295,0.221,0.571,0.463,0.838,0.713c0.058,0.055,0.114,0.112,0.171,0.168
		c0.244,0.24,0.478,0.492,0.696,0.76c0.013,0.015,0.026,0.029,0.039,0.045c2.431,2.999,3.354,7.717,3.04,15.136
		c-0.339,7.967-6.767,22.329-7.351,23.424c-0.158,0.296-0.486,0.908-0.43,1.054c0.005,0.015,0.054,0.064,0.212,0.122
		c0.025,0.008,0.042,0.021,0.067,0.03c0.688-0.398,1.641-0.742,2.232-0.047c0.594,0.697,0.038,1.421-0.649,1.948
		c0.002,0.188-0.018,0.373-0.055,0.543l-0.051,0.209c-0.132,0.534-0.295,1.2,0.18,1.908c0.88,1.312,3.57,2.308,7.997,2.96
		c1.07,0.158,2.059,0.238,2.936,0.238c2.2,0,3.762-0.494,4.642-1.468c1.029-1.139,0.875-2.662,0.809-3.313l-0.018-0.19
		c-0.008-0.105,0-0.207,0.017-0.304c-1.015-0.589-2.218-1.52-1.584-2.078C58.38,85.724,59.762,86.373,60.653,86.877z"/>
	<path fill="#FFFFFF" d="M41.037,83.754c0.188-0.404,0.465-1.017,0.802-1.795l-1.109-3.538l0.071-0.144
		c0.029-0.061,2.974-6.121,2.974-9.405c0-1.502-0.045-4.02-0.176-6.822c-2.024,8.709-3.917,15.721-5.655,21.365L41.037,83.754z"/>
	<path fill="#FFFFFF" d="M64.916,60.157c-1.818,4.937-2.689,8.62-2.581,10.976c0.263,5.687,1.635,9.285,1.649,9.321l0.08,0.208
		l-2.92,3.911c0.219,1.504,0.375,2.422,0.381,2.458l0.055,0.325l-0.307,0.118c-0.293,0.112-1.12,0.551-1.083,1.07l0.017,0.166
		c0.069,0.692,0.256,2.529-1.013,3.934c-1.039,1.149-2.802,1.733-5.238,1.733c-0.916,0-1.943-0.084-3.054-0.246
		c-4.726-0.698-7.521-1.78-8.547-3.309c-0.234-0.35-0.354-0.694-0.41-1.02l-5.889-0.6c-5.709,16.461-9.379,17.45-9.984,17.495
		h49.866C65.587,85.155,64.737,67.382,64.916,60.157z"/>
	<path fill="#FFFFFF" d="M41.904,89.396c-0.008-0.443,0.088-0.833,0.159-1.123l0.046-0.189c0.109-0.497,0.086-1.12-1.086-1.546
		c-0.361-0.13-0.586-0.323-0.688-0.589c-0.175-0.454,0.062-0.954,0.471-1.721c0.012-0.022,0.029-0.056,0.046-0.09l-2.723-0.297
		l-0.309-0.034l-25.087-2.742c0,0,2.045,1.976-0.477,5.315l23.933,2.434L41.904,89.396z"/>
	<path fill="#FFFFFF" d="M44.543,45.829c-0.293-0.292-0.603-0.569-0.935-0.819c-0.112-0.078-0.21-0.166-0.31-0.25
		c-0.721,0.198-1.489,0.647-1.975,1.62c-0.984,1.968-1.513,2.144-1.637,2.156h2.556v0.009c0.064,1.316,0.523,2.259,1.175,2.941
		c0.385,2.245,0.65,5.016,0.827,7.744c-0.001,0.002-0.001,0.004-0.001,0.006c0.253,3.873,0.333,7.643,0.333,9.637
		c0,3.217-2.519,8.636-2.986,9.613l0.733,2.335c2.071-4.926,5.497-13.976,5.737-19.672c0.138-3.231,0.038-5.927-0.318-8.175H47.74
		c-0.011-0.067-0.02-0.136-0.031-0.202c-1.883-0.134-4.894-0.881-5.062-4.237h1.075c-0.035,0.111-0.06,0.225-0.06,0.346
		c0,0.672,0.577,1.218,1.289,1.218c0.713,0,1.29-0.546,1.29-1.218c0-0.122-0.024-0.235-0.061-0.346h0.26
		c-0.457-0.952-1.02-1.759-1.673-2.461c0.008,0,0.014-0.002,0.021-0.002C44.71,45.987,44.626,45.909,44.543,45.829z"/>
	<path fill="#FFFFFF" d="M75.563,43.765c0.523-1.063-0.389-2.567-0.992-3.408c-1.207-1.684-3.017-2.8-4.754-3.861
		c-2.665-1.625-5.592-2.854-8.583-3.733c-1.77-0.52-3.615-0.854-5.455-0.973c-3.275-0.21-6.532,0.061-9.752,0.654
		c-2.878,0.531-6.121,0.944-8.646,2.551c-0.754,0.479-2.055,1.574-2.186,2.551c-0.603,4.523,6.232,4.021,6.232,4.021
		c0-0.938,0.335-3.318,5.997-4.524c5.662-1.206,15.747,1.173,15.747,1.173c8.811,2.143,6.467,6.6,6.467,6.6
		c0.017-0.032,0.578,0.047,0.618,0.05c0.973,0.061,1.956,0.086,2.925-0.02C74.013,44.756,75.142,44.619,75.563,43.765z"/>
	<path fill="#FFFFFF" d="M77.29,1.447c-4.924-1.86-41.163-1.998-42.131,0c-0.969,1.998,11.634,19.71,8.111,30.859
		c0.09-0.281,2.752-0.545,3.094-0.6c1.067-0.171,2.14-0.311,3.216-0.42c1.604-0.165,3.212-0.279,4.826-0.292
		c1.024-0.009,2.053,0.05,3.07,0.179c0.127,0.016,0.254,0.033,0.381,0.051c1.996,0.287,3.954,0.801,5.845,1.505
		c0.902,0.336,1.789,0.711,2.663,1.116c0.285,0.132,2.701,1.125,2.682,1.36c0.326-4.051,8.738-21.992,10.786-26.019
		C82.516,3.91,82.215,3.306,77.29,1.447z M47.608,30.871c-1.206,0.178-2.407,0.398-3.545,0.662c0.257-0.816,0.414-1.671,0.503-2.551
		h3.243C47.751,29.607,47.692,30.234,47.608,30.871z M47.894,27.98h-3.26C45,17.573,35.558,3.989,36.376,2.297
		c0.239-0.492,2.744-0.847,6.396-1.072C45.142,6.227,48.751,16.048,47.894,27.98z"/>
</g>
</svg>