<?xml version="1.0" encoding="utf-8"?>
<!-- Generator: Adobe Illustrator 21.0.0, SVG Export Plug-In . SVG Version: 6.00 Build 0)  -->
<svg version="1.1" id="horseSVG" xmlns="http://www.w3.org/2000/svg" xmlns:xlink="http://www.w3.org/1999/xlink" x="0px" y="0px"
	 viewBox="0 0 81.5 106.7" style="enable-background:new 0 0 81.5 106.7;" xml:space="preserve">
<style type="text/css">
	.st0{fill:#FFFFFF;}
</style>
<path id="XMLID_54_" class="st0" d="M11.5,74.5c0,0,1.1-0.6,1.5-0.4c0.5,0.2,0.9,0.6,0.1,1.4s-1.3,1-1,1.4c0.3,0.4,0.6,0.3,0.6,0.3
	s-0.1,0.5,0.2,0.6s0.6-0.1,0.8,0.2c0,0,0.5-0.9-0.5-1.1c0,0,0.2-0.6,1-1.1s2-1.7,0.7-2.8S11.5,74.5,11.5,74.5z"/>
<path id="XMLID_53_" class="st0" d="M14.9,60.9c0,0-4.1-2.4-5.8-1.6c-1.7,0.8-3.6,2.4-0.2,5.5c3.4,3.1,4.8,3.9,3.8,5.4
	c-1,1.5-2.4,1.2-2.4,1.2s0.5,1.8-0.9,2.4s-2.4-0.5-3,0.9c0,0-1.9-3.4,2.1-4c0,0-0.7-2.3-3.6-4s-7.6-6.4-2.8-10.7
	C6.9,51.6,14.9,60.9,14.9,60.9z"/>
<g>
	<path class="st0" d="M12.3,81l-3.1-0.3c0,0-3.1,2.4-0.2,5.4l2.9,0.3C11.8,86.4,14.3,83.3,12.3,81z"/>
	<path class="st0" d="M63.2,80.5c-0.3-0.9-1.4-4.3-1.6-9.4c-0.1-2.8,1.1-7.4,3.5-13.6c0,0,0,0,0,0c0,0,0-0.1,0-0.1c0,0,0,0,0,0h0
		c0.6-1.5,1.3-3.1,2-4.8c0.3-0.2,0.6-0.5,0.8-0.7c0.6-0.8,0.8-1.7,0.8-2.4h3.6c0,0-0.3-0.3-1.7-2.4c-0.5-0.8-1.3-1.1-2.1-1.2
		c0,0,0,0,0,0c-0.2,0.1-0.9,0.5-1.7,1.2l0,0c-0.1,0.1-0.2,0.2-0.3,0.3l0,0c-0.3,0.3-0.6,0.6-0.9,0.9c0,0,0,0,0,0
		c-0.1,0.1-0.2,0.2-0.3,0.3c0,0,0,0,0,0.1c-0.2,0.2-0.4,0.5-0.6,0.7c0,0,0,0,0,0h0c-0.1,0.1-0.2,0.2-0.2,0.3c0.1,0.6,0.8,1,1.6,1
		c0.9,0,1.7-0.6,1.7-1.2c0,0,0,0,0-0.1h0.8c0,0.7-0.2,1.5-0.7,2.1c-0.8,1-2.1,1.5-3.9,1.5c-0.5,0-1,0-1.5-0.1c0,0.1-0.1,0.1-0.1,0.2
		c0,0,0,0,0,0c0,0.1-0.1,0.1-0.1,0.2c0,0,0,0,0,0c-1.1,2.3-2,5.2-2.3,8.9c-0.5,6.9,0.6,16.2,1.3,21.2L63.2,80.5z"/>
	<path class="st0" d="M60.7,86.9C60.7,86.9,60.7,86.9,60.7,86.9c-0.3-2.2-2.4-15.5-1.7-24.7c0-0.3,0.1-0.5,0.1-0.8
		c0.2-1.9,0.5-3.8,1.1-5.6c0.5-1.5,1.1-2.9,1.9-4.3c0.6-1.1,1.4-2.1,2.2-3.1c0.6-0.7,1.3-1.4,2.1-2c0.3-0.2,0.5-0.4,0.8-0.6
		c0.2-0.2,0.5-0.4,0.7-0.6c0.3-0.2,0.7-0.5,0.9-0.8c0.6-1,0.5-2.3-0.1-3.2c-0.3-0.5-0.8-0.9-1.2-1.2c-2-1.2-4.5-1.6-6.7-2
		c-2.5-0.5-5.1-0.8-7.7-1c-0.8,0-1.5-0.1-2.3,0c-1.4,0-2.7,0.2-4.1,0.5c-0.8,0.2-1.5,0.4-2.2,0.7c-0.9,0.4-1.5,1-1.7,2
		c-0.2,1.2,0.1,2.5,0.8,3.4c0,0,0.1,0.1,0.1,0.1c0.2,0.2,0.3,0.3,0.5,0.5c0.3,0.2,0.6,0.5,0.8,0.7c0.1,0.1,0.1,0.1,0.2,0.2
		c0.2,0.2,0.5,0.5,0.7,0.8c0,0,0,0,0,0c2.4,3,3.4,7.7,3,15.1c-0.3,8-6.8,22.3-7.4,23.4c-0.2,0.3-0.5,0.9-0.4,1.1
		c0,0,0.1,0.1,0.2,0.1c0,0,0,0,0.1,0c0.7-0.4,1.6-0.7,2.2,0c0.6,0.7,0,1.4-0.6,1.9c0,0.2,0,0.4-0.1,0.5l-0.1,0.2
		c-0.1,0.5-0.3,1.2,0.2,1.9c0.9,1.3,3.6,2.3,8,3c1.1,0.2,2.1,0.2,2.9,0.2c2.2,0,3.8-0.5,4.6-1.5c1-1.1,0.9-2.7,0.8-3.3l0-0.2
		c0-0.1,0-0.2,0-0.3c-1-0.6-2.2-1.5-1.6-2.1C58.4,85.7,59.8,86.4,60.7,86.9z"/>
	<path class="st0" d="M41,83.8c0.2-0.4,0.5-1,0.8-1.8l-1.1-3.5l0.1-0.1c0-0.1,3-6.1,3-9.4c0-1.5,0-4-0.2-6.8
		c-2,8.7-3.9,15.7-5.7,21.4L41,83.8z"/>
	<path class="st0" d="M64.9,60.2c-1.8,4.9-2.7,8.6-2.6,11c0.3,5.7,1.6,9.3,1.6,9.3l0.1,0.2l-2.9,3.9c0.2,1.5,0.4,2.4,0.4,2.5
		l0.1,0.3l-0.3,0.1c-0.3,0.1-1.1,0.6-1.1,1.1l0,0.2c0.1,0.7,0.3,2.5-1,3.9c-1,1.1-2.8,1.7-5.2,1.7c-0.9,0-1.9-0.1-3.1-0.2
		c-4.7-0.7-7.5-1.8-8.5-3.3c-0.2-0.3-0.4-0.7-0.4-1l-5.9-0.6c-5.7,16.5-9.4,17.5-10,17.5h49.9C65.6,85.2,64.7,67.4,64.9,60.2z"/>
	<path class="st0" d="M41.9,89.4c0-0.4,0.1-0.8,0.2-1.1l0-0.2c0.1-0.5,0.1-1.1-1.1-1.5c-0.4-0.1-0.6-0.3-0.7-0.6
		c-0.2-0.5,0.1-1,0.5-1.7c0,0,0-0.1,0-0.1l-2.7-0.3l-0.3,0l-25.1-2.7c0,0,2,2-0.5,5.3l23.9,2.4L41.9,89.4z"/>
	<path class="st0" d="M44.5,45.8c-0.3-0.3-0.6-0.6-0.9-0.8c-0.1-0.1-0.2-0.2-0.3-0.3c-0.7,0.2-1.5,0.6-2,1.6c-1,2-1.5,2.1-1.6,2.2
		h2.6v0c0.1,1.3,0.5,2.3,1.2,2.9c0.4,2.2,0.7,5,0.8,7.7c0,0,0,0,0,0c0.3,3.9,0.3,7.6,0.3,9.6c0,3.2-2.5,8.6-3,9.6l0.7,2.3
		c2.1-4.9,5.5-14,5.7-19.7c0.1-3.2,0-5.9-0.3-8.2h0c0-0.1,0-0.1,0-0.2c-1.9-0.1-4.9-0.9-5.1-4.2h1.1c0,0.1-0.1,0.2-0.1,0.3
		c0,0.7,0.6,1.2,1.3,1.2c0.7,0,1.3-0.5,1.3-1.2c0-0.1,0-0.2-0.1-0.3h0.3c-0.5-1-1-1.8-1.7-2.5c0,0,0,0,0,0
		C44.7,46,44.6,45.9,44.5,45.8z"/>
	<path class="st0" d="M75.6,43.8c0.5-1.1-0.4-2.6-1-3.4c-1.2-1.7-3-2.8-4.8-3.9c-2.7-1.6-5.6-2.9-8.6-3.7c-1.8-0.5-3.6-0.9-5.5-1
		c-3.3-0.2-6.5,0.1-9.8,0.7c-2.9,0.5-6.1,0.9-8.6,2.6c-0.8,0.5-2.1,1.6-2.2,2.6c-0.6,4.5,6.2,4,6.2,4c0-0.9,0.3-3.3,6-4.5
		s15.7,1.2,15.7,1.2c8.8,2.1,6.5,6.6,6.5,6.6c0,0,0.6,0,0.6,0c1,0.1,2,0.1,2.9,0C74,44.8,75.1,44.6,75.6,43.8z"/>
	<path class="st0" d="M77.3,1.4c-4.9-1.9-41.2-2-42.1,0c-1,2,11.6,19.7,8.1,30.9c0.1-0.3,2.8-0.5,3.1-0.6c1.1-0.2,2.1-0.3,3.2-0.4
		c1.6-0.2,3.2-0.3,4.8-0.3c1,0,2.1,0,3.1,0.2c0.1,0,0.3,0,0.4,0.1c2,0.3,4,0.8,5.8,1.5c0.9,0.3,1.8,0.7,2.7,1.1
		c0.3,0.1,2.7,1.1,2.7,1.4c0.3-4.1,8.7-22,10.8-26C82.5,3.9,82.2,3.3,77.3,1.4z M47.6,30.9c-1.2,0.2-2.4,0.4-3.5,0.7
		c0.3-0.8,0.4-1.7,0.5-2.6h3.2C47.8,29.6,47.7,30.2,47.6,30.9z M47.9,28h-3.3C45,17.6,35.6,4,36.4,2.3c0.2-0.5,2.7-0.8,6.4-1.1
		C45.1,6.2,48.8,16,47.9,28z"/>
</g>
</svg>
